<?xml version="1.0" encoding="utf-8"?>
<!-- Generator: Adobe Illustrator 17.0.0, SVG Export Plug-In . SVG Version: 6.00 Build 0)  -->
<!DOCTYPE svg PUBLIC "-//W3C//DTD SVG 1.1//EN" "http://www.w3.org/Graphics/SVG/1.1/DTD/svg11.dtd">
<svg version="1.1" id="Layer_1" xmlns="http://www.w3.org/2000/svg" xmlns:xlink="http://www.w3.org/1999/xlink" x="0px" y="0px"
	 width="97.962px" height="13.832px" viewBox="549.074 101.766 97.962 13.832"
	 enable-background="new 549.074 101.766 97.962 13.832" xml:space="preserve">
<g>
	<g>
		<g>
			<path fill="#2D6374" d="M551.524,110.088c0,0,4.695,3.565,9.363,1.291c0,0-2.813,4.36-8.175,4.215c0,0-4.45,0.048-3.431-2.094
				L551.524,110.088z"/>
			<path fill="#173343" d="M558.672,101.814c0,0-2.224-0.33-4.659,0.739c-0.04,0.017-0.08,0.035-0.12,0.054
				c-2.499,1.142-3.775,2.394-4.427,4.64c0,0-0.679,6.488-0.251,7.237c0,0-0.214-0.714,0.964-1.606c0,0,5.134-4.964,11.173-7.889
				C561.352,104.99,560.564,102.635,558.672,101.814z"/>
			<path fill="#2CB373" d="M558.674,101.813c0,0,6.078,3.332-0.883,12.47c0,0,3.756-2.511,6.773-5.171c0,0,3.337-2.41-0.143-4.676
				C564.422,104.436,563.161,103.534,558.674,101.813z"/>
		</g>
	</g>
	<g>
		<g>
			<path fill="#173343" d="M569.508,103.713h1.665v4.764l4.507-4.764h2.044l-3.939,4.074l4.115,5.401h-2.017l-3.235-4.264
				l-1.475,1.516v2.748h-1.665L569.508,103.713L569.508,103.713z"/>
			<path fill="#173343" d="M583.368,113.188v-0.88c-0.487,0.582-1.232,1.029-2.314,1.029c-1.354,0-2.545-0.771-2.545-2.206v-0.027
				c0-1.584,1.232-2.342,2.897-2.342c0.866,0,1.421,0.122,1.976,0.298v-0.135c0-0.988-0.623-1.53-1.76-1.53
				c-0.799,0-1.394,0.176-2.044,0.447l-0.447-1.313c0.785-0.352,1.557-0.596,2.721-0.596c2.111,0,3.14,1.11,3.14,3.018v4.237
				L583.368,113.188L583.368,113.188z M583.409,110.196c-0.419-0.162-1.002-0.284-1.638-0.284c-1.029,0-1.638,0.42-1.638,1.11v0.027
				c0,0.677,0.609,1.056,1.381,1.056c1.083,0,1.895-0.609,1.895-1.502L583.409,110.196L583.409,110.196z"/>
			<path fill="#173343" d="M586.941,106.041h1.638v1.611c0.447-1.069,1.272-1.8,2.531-1.746v1.733h-0.095
				c-1.435,0-2.436,0.934-2.436,2.829v2.721h-1.638L586.941,106.041L586.941,106.041z"/>
			<path fill="#173343" d="M592.531,106.041h1.638v1.083c0.46-0.636,1.083-1.232,2.179-1.232c1.029,0,1.746,0.501,2.125,1.259
				c0.582-0.758,1.34-1.259,2.423-1.259c1.557,0,2.504,0.988,2.504,2.734v4.561h-1.638v-4.061c0-1.137-0.528-1.746-1.448-1.746
				c-0.893,0-1.529,0.623-1.529,1.773v4.034h-1.638v-4.074c0-1.11-0.541-1.733-1.448-1.733c-0.907,0-1.529,0.677-1.529,1.787v4.02
				h-1.638V106.041z"/>
			<path fill="#173343" d="M609.761,113.188v-0.88c-0.487,0.582-1.232,1.029-2.315,1.029c-1.353,0-2.545-0.771-2.545-2.206v-0.027
				c0-1.584,1.232-2.342,2.897-2.342c0.866,0,1.421,0.122,1.976,0.298v-0.135c0-0.988-0.623-1.53-1.76-1.53
				c-0.799,0-1.394,0.176-2.044,0.447l-0.447-1.313c0.785-0.352,1.557-0.596,2.721-0.596c2.111,0,3.14,1.11,3.14,3.018v4.237
				L609.761,113.188L609.761,113.188z M609.801,110.196c-0.42-0.162-1.002-0.284-1.638-0.284c-1.029,0-1.638,0.42-1.638,1.11v0.027
				c0,0.677,0.609,1.056,1.38,1.056c1.083,0,1.895-0.609,1.895-1.502L609.801,110.196L609.801,110.196z"/>
			<path fill="#173343" d="M613.713,103.713h3.438c2.084,0,3.519,1.069,3.519,2.897v0.027c0,1.99-1.719,3.018-3.695,3.018h-2.558
				v3.533h-0.704V103.713z M617.016,109.005c1.76,0,2.951-0.92,2.951-2.328v-0.027c0-1.502-1.164-2.287-2.869-2.287h-2.68v4.643
				H617.016z"/>
			<path fill="#173343" d="M622.537,110.508v-4.223h0.663v4.101c0,1.421,0.798,2.355,2.193,2.355c1.353,0,2.396-1.029,2.396-2.464
				v-3.993h0.663v6.903h-0.663v-1.286c-0.46,0.812-1.232,1.448-2.49,1.448C623.552,113.35,622.537,112.159,622.537,110.508z"/>
			<path fill="#173343" d="M631.064,103.307h0.663v9.881h-0.663V103.307z"/>
			<path fill="#173343" d="M633.744,112.321l0.393-0.528c0.758,0.582,1.597,0.907,2.477,0.907c0.934,0,1.665-0.514,1.665-1.313
				v-0.027c0-0.812-0.866-1.11-1.827-1.381c-1.123-0.325-2.369-0.663-2.369-1.895v-0.027c0-1.11,0.934-1.908,2.274-1.908
				c0.826,0,1.76,0.298,2.45,0.758l-0.352,0.555c-0.636-0.42-1.394-0.69-2.125-0.69c-0.947,0-1.57,0.514-1.57,1.205v0.027
				c0,0.772,0.934,1.056,1.922,1.34c1.11,0.311,2.274,0.717,2.274,1.936v0.027c0,1.232-1.056,2.017-2.382,2.017
				C635.571,113.323,634.475,112.917,633.744,112.321z"/>
			<path fill="#173343" d="M640.592,109.75v-0.027c0-2.003,1.408-3.6,3.276-3.6c1.936,0,3.167,1.57,3.167,3.614
				c0,0.122,0,0.162-0.013,0.271h-5.725c0.122,1.719,1.354,2.721,2.707,2.721c1.069,0,1.8-0.474,2.369-1.083l0.46,0.406
				c-0.704,0.758-1.53,1.299-2.856,1.299C642.162,113.35,640.592,111.902,640.592,109.75z M646.318,109.411
				c-0.095-1.394-0.893-2.68-2.477-2.68c-1.367,0-2.423,1.151-2.545,2.68H646.318z"/>
		</g>
	</g>
</g>
</svg>
